<svg width="47" height="45" fill="none" xmlns="http://www.w3.org/2000/svg"><rect x=".492" width="46.015" height="45" rx="8" fill="#FF1616"/><path d="M17.492 26a1 1 0 01-1-.8l-2.34-11.79a3 3 0 00-2.94-2.41h-1.72a1 1 0 010-2h1.72a5 5 0 014.9 4l2.38 11.8a1 1 0 01-.8 1.2h-.2z" fill="#fff"/><path d="M18.492 33h-1.86a4.14 4.14 0 01-.38-8.26l18.41-1.67 1.61-8.07h-20.78a1 1 0 010-2h22a1.001 1.001 0 01.77.37 1 1 0 01.23.83l-2 10a1 1 0 01-.89.8l-19.17 1.74a2.132 2.132 0 00.2 4.26h1.86a1 1 0 010 2zm15 3a4 4 0 110-8 4 4 0 010 8zm0-6a2 2 0 100 4 2 2 0 000-4z" fill="#fff"/><path d="M21.492 36a4 4 0 110-8 4 4 0 010 8zm0-6a2 2 0 100 4 2 2 0 000-4z" fill="#fff"/><path d="M30.492 33h-6a1 1 0 010-2h6a1 1 0 010 2z" fill="#fff"/></svg>