<svg width="47" height="45" fill="none" xmlns="http://www.w3.org/2000/svg"><rect width="47" height="45" rx="8" fill="#0092DD"/><path d="M17 26a1 1 0 01-1-.8l-2.34-11.79A3 3 0 0010.72 11H9a1 1 0 010-2h1.72a5 5 0 014.9 4L18 24.8a1 1 0 01-.8 1.2H17z" fill="#fff"/><path d="M18 33h-1.86a4.14 4.14 0 01-.38-8.26l18.41-1.67L35.78 15H15a1 1 0 010-2h22a1.002 1.002 0 01.77.37 1.001 1.001 0 01.23.83l-2 10a1 1 0 01-.89.8l-19.17 1.74a2.132 2.132 0 10.2 4.26H18a1 1 0 010 2zm15 3a4 4 0 110-8 4 4 0 010 8zm0-6a2 2 0 100 4 2 2 0 000-4z" fill="#fff"/><path d="M21 36a4 4 0 110-8 4 4 0 010 8zm0-6a2 2 0 100 4 2 2 0 000-4z" fill="#fff"/><path d="M30 33h-6a1 1 0 010-2h6a1 1 0 010 2z" fill="#fff"/></svg>