<svg width="28" height="25" fill="none" xmlns="http://www.w3.org/2000/svg"><path d="M8.333 15.74a.925.925 0 01-.926-.74L5.241 4.083a2.778 2.778 0 00-2.722-2.231H.926A.926.926 0 11.926 0h1.593a4.63 4.63 0 014.537 3.704L9.259 14.63a.926.926 0 01-.74 1.11h-.186z" fill="#fff"/><path d="M9.26 22.222H7.536a3.833 3.833 0 01-.352-7.648l17.047-1.546 1.49-7.473H6.482a.926.926 0 010-1.851h20.37a.926.926 0 01.713.342.927.927 0 01.213.769l-1.852 9.259a.926.926 0 01-.824.74l-17.75 1.612a1.974 1.974 0 00.185 3.944H9.26a.926.926 0 110 1.852zM23.148 25a3.704 3.704 0 110-7.408 3.704 3.704 0 010 7.408zm0-5.556a1.852 1.852 0 100 3.704 1.852 1.852 0 000-3.704z" fill="#fff"/><path d="M12.037 25a3.704 3.704 0 110-7.409 3.704 3.704 0 010 7.409zm0-5.556a1.851 1.851 0 100 3.703 1.851 1.851 0 000-3.703z" fill="#fff"/><path d="M20.37 22.222h-5.555a.926.926 0 110-1.852h5.555a.926.926 0 110 1.852z" fill="#fff"/></svg>