<svg width="31" height="27" fill="none" xmlns="http://www.w3.org/2000/svg"><path d="M9 17a1 1 0 01-1-.8L5.66 4.41A3 3 0 002.72 2H1a1 1 0 010-2h1.72a5 5 0 014.9 4L10 15.8a1 1 0 01-.8 1.2H9z" fill="#545454"/><path d="M10 24H8.14a4.14 4.14 0 01-.38-8.26l18.41-1.67L27.78 6H7a1 1 0 010-2h22a1 1 0 01.77.37 1 1 0 01.23.83l-2 10a1 1 0 01-.89.8L7.94 17.74a2.132 2.132 0 00.2 4.26H10a1 1 0 010 2zm15 3a4 4 0 110-8 4 4 0 010 8zm0-6a2 2 0 100 4 2 2 0 000-4z" fill="#545454"/><path d="M13 27a4 4 0 110-8 4 4 0 010 8zm0-6a2 2 0 100 4 2 2 0 000-4z" fill="#545454"/><path d="M22 24h-6a1 1 0 010-2h6a1 1 0 010 2z" fill="#545454"/></svg>