<svg width="29" height="25" fill="none" xmlns="http://www.w3.org/2000/svg"><path d="M15.487 22.762c-.537.384-.989.695-1.318.918a66.335 66.335 0 01-5.66-4.29c-1.609-1.37-3.234-2.911-4.534-4.48-1.316-1.587-2.216-3.106-2.504-4.428l-.011-.052-.016-.05A7.144 7.144 0 011.1 8.19c0-2.683 1.45-5.008 3.579-6.215A6.75 6.75 0 018.002 1.1c2.128 0 4.038.99 5.313 2.56l.856 1.052.853-1.055C16.292 2.09 18.203 1.1 20.328 1.1c1.206 0 2.336.319 3.326.876a7.129 7.129 0 013.58 6.216c0 .764-.124 1.5-.345 2.188l-.016.051-.011.052c-.288 1.322-1.188 2.841-2.504 4.428-1.3 1.568-2.925 3.11-4.534 4.478a66.368 66.368 0 01-4.337 3.373z" stroke="#545454" stroke-width="2.2"/></svg>