<svg width="23" height="20" fill="none" xmlns="http://www.w3.org/2000/svg"><path d="M12.458 18.026a51.94 51.94 0 01-.956.658 53.557 53.557 0 01-4.466-3.345c-1.301-1.09-2.612-2.315-3.656-3.556C2.32 10.52 1.617 9.34 1.395 8.336l-.012-.052-.016-.051a5.462 5.462 0 012.527-6.457A5.344 5.344 0 016.495 1.1c1.668 0 3.162.764 4.158 1.972l.851 1.032.848-1.034a5.357 5.357 0 016.753-1.294 5.465 5.465 0 012.527 6.457l-.017.05-.011.053c-.222 1.004-.925 2.186-1.985 3.447-1.044 1.24-2.354 2.466-3.654 3.556a53.566 53.566 0 01-3.507 2.687z" fill="#F36464" stroke="#F36464" stroke-width="2.2"/></svg>