<svg width="34" height="35" fill="none" xmlns="http://www.w3.org/2000/svg"><path fill-rule="evenodd" clip-rule="evenodd" d="M17 0C7.611 0 0 7.665 0 17.12c0 9.454 7.611 17.118 17 17.118s17-7.664 17-17.119C34 7.665 26.389 0 17 0zm1.384 22.523c-.168.178-.495.214-.495.214h-1.084s-2.39.142-4.497-2.025c-2.297-2.364-4.325-7.056-4.325-7.056s-.117-.307.01-.455c.142-.168.531-.178.531-.178l2.591-.017s.244.04.419.166c.144.106.225.301.225.301s.419 1.047.973 1.994c1.083 1.849 1.587 2.253 1.954 2.055.536-.289.375-2.614.375-2.614s.01-.843-.27-1.22c-.216-.29-.624-.375-.804-.399-.146-.02.093-.354.403-.504.467-.225 1.29-.238 2.263-.229.758.008.976.055 1.273.126.687.164.666.69.62 1.823-.014.34-.03.733-.03 1.188 0 .102-.004.211-.007.323-.016.581-.034 1.247.353 1.494.199.127.684.019 1.898-2.019.576-.966 1.007-2.101 1.007-2.101s.095-.203.241-.29c.15-.088.352-.06.352-.06l2.727-.017s.819-.098.951.269c.14.383-.306 1.279-1.42 2.746-1.057 1.393-1.571 1.906-1.523 2.36.034.33.369.63 1.01 1.218 1.339 1.229 1.698 1.875 1.784 2.03a.707.707 0 00.016.03c.6.984-.666 1.061-.666 1.061l-2.422.033s-.52.102-1.204-.363c-.36-.243-.71-.64-1.043-1.018-.51-.578-.981-1.112-1.383-.986-.675.213-.655 1.65-.655 1.65s.006.307-.148.47z" fill="#0092DD"/></svg>