<svg width="34" height="35" fill="none" xmlns="http://www.w3.org/2000/svg"><path fill-rule="evenodd" clip-rule="evenodd" d="M0 17.12C0 7.663 7.611 0 17 0s17 7.665 17 17.12c0 9.454-7.611 17.118-17 17.118S0 26.574 0 17.12zm16.988.274c2.507 0 4.545-1.981 4.545-4.417S19.495 8.56 16.988 8.56c-2.506 0-4.544 1.981-4.544 4.417s2.038 4.417 4.544 4.417zm4.49 2.543A8.651 8.651 0 0118.838 21l2.541 2.47c.52.504.52 1.324 0 1.83a1.358 1.358 0 01-1.882 0L17 22.873 14.504 25.3a1.35 1.35 0 01-.942.378 1.35 1.35 0 01-.941-.378 1.27 1.27 0 01-.001-1.83L15.16 21a8.668 8.668 0 01-2.638-1.063 1.273 1.273 0 01-.417-1.784 1.352 1.352 0 011.835-.407 5.91 5.91 0 006.12 0 1.353 1.353 0 011.835.407 1.273 1.273 0 01-.417 1.784z" fill="#FF1616"/><path d="M16.988 11.149c1.038 0 1.882.82 1.882 1.829 0 1.007-.844 1.828-1.882 1.828-1.036 0-1.881-.82-1.881-1.829 0-1.008.845-1.828 1.881-1.828z" fill="#FF1616"/></svg>