<svg width="106" height="16" fill="none" xmlns="http://www.w3.org/2000/svg"><path d="M17.037 6.06l-5.86-.855L8.488 0 5.852 5.23 0 6.144l4.23 4.088L3.304 16l5.251-2.704 5.278 2.653-.985-5.76 4.19-4.128zm22.203 0l-5.861-.855L30.69 0l-2.637 5.23-5.852.913 4.231 4.088L25.505 16l5.251-2.704 5.278 2.653-.985-5.76 4.19-4.128zm22.202 0l-5.86-.855L52.891 0l-2.636 5.23-5.852.913 4.231 4.088L47.708 16l5.252-2.704 5.278 2.653-.986-5.76 4.19-4.128zm22.202 0l-5.86-.855L75.094 0l-2.637 5.23-5.851.913 4.23 4.088L69.91 16l5.252-2.704 5.278 2.653-.985-5.76 4.19-4.128zm22.202 0l-5.86-.855L97.297 0l-2.636 5.23-5.852.913 4.23 4.088L92.113 16l5.251-2.704 5.278 2.653-.985-5.76 4.19-4.128z" fill="#FFC413"/></svg>