<svg width="100" height="100" fill="none" xmlns="http://www.w3.org/2000/svg"><rect width="100" height="100" rx="20" fill="#F4F4F4"/><path d="M50.074 51.027a15.013 15.013 0 10-10.626-4.394 14.98 14.98 0 0010.626 4.394zM41.86 27.801a11.616 11.616 0 11-3.402 8.213A11.58 11.58 0 0141.86 27.8zm8.214 25.607C37.351 53.408 27 63.758 27 76.48a1.706 1.706 0 001.705 1.705h42.737a1.706 1.706 0 001.705-1.705c0-12.723-10.351-23.073-23.073-23.073zm-19.59 21.367c.867-10.046 9.325-17.956 19.59-17.956 10.266 0 18.723 7.91 19.589 17.956H30.485z" fill="silver"/></svg>