<svg width="251" height="66" fill="none" xmlns="http://www.w3.org/2000/svg"><rect width="250.558" height="59" rx="10" fill="#0092DD"/><path d="M24.953 19.568c-1.418 0-2.695.246-3.832.739a7.794 7.794 0 00-2.883 2.109c-.785.914-1.388 2.021-1.81 3.322-.422 1.301-.633 2.766-.633 4.395 0 2.156.334 4.031 1.002 5.625.68 1.582 1.687 2.806 3.023 3.674 1.348.867 3.03 1.3 5.045 1.3a17.68 17.68 0 003.235-.28c1.02-.2 2.01-.446 2.97-.74v2.602a15.14 15.14 0 01-2.953.774c-1.031.176-2.256.264-3.674.264-2.613 0-4.799-.54-6.556-1.618-1.746-1.09-3.059-2.625-3.938-4.605-.867-1.98-1.3-4.319-1.3-7.014 0-1.945.269-3.72.808-5.326.55-1.617 1.348-3.012 2.39-4.184 1.055-1.171 2.344-2.074 3.868-2.707 1.535-.644 3.293-.966 5.273-.966 1.301 0 2.555.129 3.762.386 1.207.258 2.297.627 3.27 1.108l-1.196 2.531a17.844 17.844 0 00-2.707-.967c-.973-.281-2.027-.422-3.164-.422zm11.725-2.267h2.795v14.853a106.005 106.005 0 01-.07 3.78 56.043 56.043 0 01-.088 1.722c-.024.516-.047.914-.07 1.196h.14L53.693 17.3h3.288V43h-2.796V28.322c0-.62.012-1.277.036-1.968.023-.704.047-1.383.07-2.04.035-.656.07-1.242.106-1.757.035-.528.058-.932.07-1.213h-.158L39.982 43h-3.304V17.3zM63.994 43V17.3h15.1v2.637H66.982v8.297h3.99c2.473 0 4.407.305 5.801.914 1.395.61 2.374 1.46 2.936 2.55.574 1.09.861 2.355.861 3.796 0 2.367-.709 4.213-2.127 5.537C77.037 42.344 74.7 43 71.43 43h-7.436zm2.988-2.566h4.131c2.32 0 3.961-.405 4.922-1.213.973-.82 1.46-2.063 1.46-3.727 0-1.16-.235-2.08-.704-2.76-.469-.68-1.207-1.166-2.215-1.459-1.008-.293-2.332-.44-3.972-.44h-3.622v9.599zM97.34 43l-8.631-22.746h-.14c.046.48.087 1.066.122 1.758a95.18 95.18 0 01.123 4.746V43h-2.777V17.3h4.43l8.139 21.376h.123L106.99 17.3h4.395V43h-2.953V26.547c0-.762.011-1.524.035-2.285.023-.774.053-1.5.088-2.18.035-.691.07-1.289.105-1.793h-.14L99.783 43H97.34zm35.385 0h-14.309V17.3h14.309v2.637h-11.321v8.315h10.67v2.602h-10.67v9.51h11.321V43zm23.976 0h-2.988V19.937h-8.332a723.49 723.49 0 01-.527 4.114 458.47 458.47 0 01-.581 4.271c-.199 1.418-.398 2.76-.597 4.026a79.538 79.538 0 01-.598 3.375c-.305 1.629-.685 3.017-1.142 4.166-.446 1.136-1.043 2.01-1.793 2.619-.739.597-1.717.896-2.936.896-.41 0-.82-.04-1.23-.123a6.728 6.728 0 01-1.055-.299V40.47c.269.117.568.216.896.299.34.082.698.123 1.073.123.738 0 1.318-.293 1.74-.88.433-.597.773-1.353 1.019-2.267.258-.914.481-1.851.668-2.812.153-.797.328-1.805.528-3.024.199-1.219.41-2.601.633-4.148.222-1.559.451-3.223.685-4.992.246-1.77.486-3.592.721-5.467h13.816V43zm29.32-12.885c0 1.98-.251 3.785-.755 5.414-.504 1.617-1.254 3.012-2.25 4.184-.985 1.16-2.209 2.056-3.674 2.69-1.465.632-3.164.949-5.098.949-1.992 0-3.732-.317-5.221-.95-1.476-.633-2.707-1.535-3.691-2.707-.973-1.172-1.705-2.572-2.197-4.2-.481-1.63-.721-3.434-.721-5.415 0-2.625.434-4.928 1.301-6.908.867-1.98 2.18-3.522 3.937-4.623 1.77-1.102 3.985-1.652 6.645-1.652 2.543 0 4.682.544 6.416 1.634 1.746 1.09 3.064 2.625 3.955 4.606.902 1.968 1.353 4.295 1.353 6.978zm-20.46 0c0 2.18.31 4.067.931 5.66.621 1.594 1.57 2.825 2.848 3.692 1.289.867 2.924 1.3 4.904 1.3 1.992 0 3.621-.433 4.887-1.3 1.277-.867 2.221-2.098 2.83-3.692.609-1.593.914-3.48.914-5.66 0-3.316-.697-5.906-2.092-7.77-1.383-1.874-3.545-2.812-6.486-2.812-1.992 0-3.633.428-4.922 1.283-1.289.856-2.25 2.075-2.883 3.657-.621 1.57-.931 3.45-.931 5.642zM209.664 43h-2.971V32.348c-1.371.492-2.672.89-3.902 1.195-1.23.305-2.596.457-4.096.457-2.425 0-4.289-.557-5.59-1.67-1.289-1.125-1.933-2.736-1.933-4.834V17.301h2.988v9.773c0 1.418.375 2.49 1.125 3.217.762.715 1.998 1.072 3.709 1.072 1.442 0 2.731-.129 3.867-.386a38 38 0 003.832-1.143V17.301h2.971V43zm7.084-25.7h2.795v14.854a103.328 103.328 0 01-.07 3.78 58.308 58.308 0 01-.088 1.722 33.66 33.66 0 01-.071 1.196h.141L233.764 17.3h3.287V43h-2.795V28.322c0-.62.012-1.277.035-1.968.023-.704.047-1.383.07-2.04.035-.656.071-1.242.106-1.757.035-.528.058-.932.07-1.213h-.158L220.053 43h-3.305V17.3z" fill="#FFFEFE"/><path fill="#0092DD" d="M125 59.535L131.535 53 138 59.464 131.464 66z"/></svg>